<?xml version="1.0" encoding="UTF-8"?>
<svg width="20.26396mm" height="25mm" version="1.1" viewBox="0 0 20.26396 25" xmlns="http://www.w3.org/2000/svg">
 <g transform="translate(-105.11672,-228.13519)">
  <g transform="matrix(1.500984,0,0,1.500984,-51.770079,-135.71052)">
   <g fill="#0065cc">
    <path d="m104.52263 246.85782c0.52985 0.0186 0.90287 0.29576 1.18334 0.62602v7.00437c1.87784 0.39944 3.32387 0.84474 4.26059 1.36495 2.37343 1.31807 2.68351 2.41654 3.31075 3.20736-0.99652-0.97227-2.1516-1.83974-3.5359-2.4015-1.51059-0.61301-3.28457-0.97717-5.18334-1.16476z"/>
    <path d="m106.31941 244.89351c0.52984-0.0455 1.43204 0.53754 1.71251 0.96011v6.87073c1.35981 0.5463 1.84689 0.91539 2.58948 1.57836 1.78172 1.59068 2.62225 3.62198 3.08293 4.75781-1.32283-1.88086-2.20742-3.05206-3.50636-3.74057-1.60989-0.85333-2.28427-1.16423-3.84312-1.41866z"/>
    <path d="m108.65884 243.87236-0.0165 8.05171c1.17483 0.59448 2.02428 1.27862 2.70988 2.00065 1.40205 1.47657 2.07812 3.24733 2.78591 5.13581l-0.017-9.72597c-0.7878-0.90229-1.26798-1.16138-1.72374-1.36942v2.04328c-0.7139-0.74858-1.09739-1.07879-1.98766-1.48828v-1.91358c0.70675 0.3181 1.35963 0.72782 1.98766 1.35858l-0.017-2.12184c-1.7073-1.33621-2.61117-1.57297-3.72141-1.97094z"/>
   </g>
   <path d="m114.44647 242.40479v1.9135c0.90469 0.38065 1.45097 0.96059 2.09099 1.48828v-2.04343c-0.62802-0.63076-1.38424-1.04025-2.09099-1.35835z" fill="#cb0000"/>
   <path d="m115.93209 246.39764v1.9135c0.90469 0.38065 1.45097 0.96059 2.09099 1.48828v-2.04343c-0.62802-0.63076-1.38424-1.04025-2.09099-1.35835z" fill="#3398fd"/>
   <path d="m112.48414 243.92994v1.9135c0.9047 0.38065 1.45098 0.96059 2.091 1.48828v-2.04343c-0.62802-0.63076-1.38425-1.04025-2.091-1.35835z" fill="#fd9833"/>
  </g>
 </g>
</svg>
